<?xml version="1.0" encoding="UTF-8" standalone="no"?><!DOCTYPE svg PUBLIC "-//W3C//DTD SVG 1.1//EN" "http://www.w3.org/Graphics/SVG/1.1/DTD/svg11.dtd"><svg width="100%" height="100%" viewBox="0 0 492 351" version="1.1" xmlns="http://www.w3.org/2000/svg" xmlns:xlink="http://www.w3.org/1999/xlink" xml:space="preserve" xmlns:serif="http://www.serif.com/" style="fill-rule:evenodd;clip-rule:evenodd;stroke-miterlimit:3.86;"><rect id="Artboard1" x="0" y="0" width="491.9" height="350.867" style="fill:none;"/><clipPath id="_clip1"><rect x="0" y="0" width="491.9" height="350.867"/></clipPath><g clip-path="url(#_clip1)"><g id="Foreground"><path d="M396.12,211.53l0,-52.88l-25.72,0l-8.81,0l-0.73,0l0,-7.12l78.76,0l0,7.12l-0.72,0l-9.54,0l-25.14,0l0,101.44l-3.91,0.28l-4.19,0l0,-48.84Z" style="fill:#34715b;fill-rule:nonzero;"/><path d="M353.67,197.52l0,64.19l-0.67,0c-30.78,-37.26 -48.12,-58.61 -58.38,-71.17c-6.07,-7.39 -9.83,-11.72 -16,-20.37l-0.15,41.31l0,95.67l-7.51,0l0,-157.35l0.72,0c31.79,38.79 49.57,60.7 59.69,73c5.49,6.84 9.38,11.58 14.59,18.7l0.29,-44l0,-46l7.5,0.05l-0.08,45.97Z" style="fill:#34715b;fill-rule:nonzero;"/><path d="M181.09,218.7l-0.09,-42.41l7.82,0l-0.11,41.76c0,11.46 1.64,19.62 5.73,25.81c5,7.51 15,11.73 24.28,11.73c10.37,0 19.1,-2.77 25.1,-10.41c4.92,-6.32 7.23,-15.67 7.23,-28.71l0,-65.62l3.55,-0.26l3.82,0l0,66.67c0,14.62 -3,25.29 -10,33.19c-7,7.9 -17.6,12 -30.15,12c-12.28,0 -22.92,-4.35 -29.6,-13.57c-5.26,-7.25 -7.58,-15.29 -7.58,-30.18Z" style="fill:#34715b;fill-rule:nonzero;"/><path d="M0,206.45c0,-35.86 27.46,-55.67 60,-55.67c4.057,-0.009 8.11,0.222 12.14,0.69c3.47,0.42 7.8,1.26 10.26,1.82c-0.15,2.51 -0.15,6.83 -0.29,7.67c-2.31,-0.56 -4.62,-1.11 -6.94,-1.53c-4.816,-0.851 -9.699,-1.273 -14.59,-1.26c-31.53,0 -51.58,18.28 -51.58,48.56c0,29 22.11,48.7 50.43,48.7c5.078,0.014 10.145,-0.465 15.13,-1.43c2.158,-0.519 4.282,-1.17 6.36,-1.95c0.29,2.79 0.29,5.3 0.44,7.53c-3.278,0.974 -6.619,1.722 -10,2.24c-4.405,0.612 -8.843,0.946 -13.29,1c-30.18,0.01 -58.07,-19.95 -58.07,-56.37Z" style="fill:#34715b;fill-rule:nonzero;"/><path d="M468.24,210.54l-7,13l0,36.6l-3.55,0.25l-3.69,0l0,-36.75l-7.47,-13.72c-21.53,-39.42 -23.42,-43.92 -23.68,-44.81l3.93,-0.24l4.22,0c0.25,1.1 2.79,6.73 15,29.5c3.93,7.47 8.62,16.17 11.92,22.41c3.42,-6.37 7.86,-14.69 11.92,-22.53c11.66,-22.53 14.2,-28.41 14.32,-29.14l3.94,-0.24l3.8,0c-0.32,1.13 -2.1,5.51 -23.66,45.67Z" style="fill:#34715b;fill-rule:nonzero;"/><path d="M244.26,98.27c0,38.94 -30.06,71.85 -72.94,71.85c-39.77,0 -70.93,-32 -70.93,-70.08c0,-40.7 31.53,-71.84 74,-71.84c40.18,0 69.87,30.8 69.87,70.07Z" style="fill:#6d6e71;fill-rule:nonzero;"/><g><clipPath id="_clip2"><path d="M244.26,98.27c0,38.94 -30.06,71.85 -72.94,71.85c-39.77,0 -70.93,-32 -70.93,-70.08c0,-40.7 31.53,-71.84 74,-71.84c40.18,0 69.87,30.8 69.87,70.07Z"/></clipPath><g clip-path="url(#_clip2)"><path d="M99.69,31.2l68.55,-66.2l68.56,66.2l-68.55,66.19l-68.56,-66.19Z" style="fill:url(#_Linear3);fill-rule:nonzero;"/><path d="M99.45,161.93l68.24,-65.9l68.24,65.9l-68.24,65.89l-68.24,-65.89Z" style="fill:url(#_Linear4);fill-rule:nonzero;"/><path d="M100.29,163.27l-68.56,-66.19l68.56,-66.2l68.55,66.19l-68.55,66.2Z" style="fill:url(#_Linear5);fill-rule:nonzero;"/><path d="M236.46,163.12l-68.24,-65.89l68.24,-65.9l68.24,65.89l-68.24,65.9Z" style="fill:url(#_Linear6);fill-rule:nonzero;"/></g></g><path d="M245.16,98.28c0,39.73 -30.67,73.31 -74.43,73.31c-40.58,0 -72.38,-32.68 -72.38,-71.5c0,-41.54 32.17,-73.32 75.56,-73.32c40.95,0 71.25,31.42 71.25,71.51Zm-8.47,1.16c0.16,-37.56 -27.82,-66.51 -65.15,-66.65c-36.34,-0.15 -64.56,29.15 -64.72,66.14c-0.14,35.67 28,66.33 64.76,66.47c37.33,0.15 64.96,-29.34 65.11,-65.96Z" style="fill:#34715b;fill-rule:nonzero;"/><path d="M27.97,233.89l239.06,-233.05" style="fill:none;fill-rule:nonzero;stroke:#a2988a;stroke-width:2.5px;"/><path d="M66.92,0.84l225.64,217.88" style="fill:none;fill-rule:nonzero;stroke:#a2988a;stroke-width:2.5px;"/><path d="M210.89,305.67l1.38,0c2.05,-0.005 4.082,-0.378 6,-1.1c3.35,-1.41 6.69,-4 6.69,-9.72c0,-6 -4.8,-9.41 -11.8,-9.41c-0.65,0 -1.61,0 -2.23,0.07l-0.04,20.16Zm7.21,3.73c1.07,1.25 4,4.71 13.69,16.49l7.62,9.19c2.84,3.42 7.63,9.1 7.63,9.1l-6.54,0c0,0 -18.86,-23 -27.78,-34l-1.83,-0.07l0,21.8l-4.89,0l0,-50.66l0.91,0c0.5,0 1.17,-0.07 2,-0.12c1.33,-0.06 2.93,-0.13 3.72,-0.13c3.126,-0.09 6.242,0.398 9.19,1.44c5.067,1.917 8.402,6.843 8.3,12.26c0,7.82 -5,11.41 -8,13.05c-1.27,0.707 -2.62,1.261 -4.02,1.65Zm-161.57,-24c-2.163,-0.378 -4.354,-0.565 -6.55,-0.56c-14.06,0 -22.93,8.1 -22.93,21.57c0,12.91 9.8,21.64 22.41,21.64c2.281,0.011 4.558,-0.197 6.8,-0.62c0.938,-0.234 1.863,-0.517 2.77,-0.85l1.8,-0.63l-0.58,1.77c-0.205,0.83 -0.266,1.689 -0.18,2.54l0,0.71l-0.7,0.21c-1.438,0.425 -2.9,0.759 -4.38,1c-2.042,0.282 -4.099,0.432 -6.16,0.45c-14.06,0 -27.11,-9.32 -27.11,-26.31c0,-16.74 12.86,-26 28,-26c1.875,-0.002 3.748,0.108 5.61,0.33c1.48,0.18 3.3,0.52 4.46,0.77l0.77,0.17l0,0.76c0,0.54 0,1.18 -0.05,1.76l-0.07,2.28l-1.18,-0.34c-0.83,-0.22 -1.78,-0.44 -2.73,-0.61l0,-0.04Zm18,29.81c-5.44,12.85 -14.27,32.88 -14.95,34.5l-0.24,0.57l-5.22,0l0.56,-1.27c1.23,-2.78 10,-22.55 17.49,-40.33l12.58,-29.88l12.15,30.05c6.72,16.54 8.45,20.77 8.86,21.85l0.47,1.23l-5.23,0l-0.23,-0.6c-0.25,-0.67 -1.58,-3.95 -6.6,-16.08l-19.64,-0.04Zm1.83,-4.35l16.04,0c-5.42,-13.67 -7,-17.58 -7.82,-20c-0.92,2.47 -2.58,6.4 -8.23,20.04l0.01,-0.04Zm46.4,-1.5c1.07,1.25 4,4.71 13.69,16.49c1.28,1.54 3,3.61 3.83,4.53l1.33,1.51l-6.61,0l-0.28,-0.34c-3.9,-4.77 -8.65,-10.62 -17.37,-21.39l-1.83,-0.07l0,34.39l-4.9,0l0,-63.23l0.91,0c0.5,0 1.18,-0.07 2,-0.12c1.33,-0.06 2.93,-0.13 3.72,-0.13c3.126,-0.09 6.242,0.398 9.19,1.44c5.067,1.917 8.402,6.843 8.3,12.26c0,7.82 -5,11.41 -7.95,13.05c-1.276,0.708 -2.633,1.262 -4.04,1.65l0.01,-0.04Zm-7.21,-3.73l1.38,0c2.05,-0.003 4.082,-0.376 6,-1.1c3.36,-1.41 6.69,-4 6.69,-9.72c0,-6 -4.79,-9.41 -11.79,-9.41c-0.65,0 -1.61,0 -2.23,0.07l-0.05,20.16Zm33.63,21.72l18.82,0l0,4.54l-23.73,0l0,-50.79l22.9,0l0,4.48l-18,0l0,18.12l16.88,0l0,4.42l-16.88,0l0.01,19.23Zm30.86,0l18.79,0l0,4.54l-23.7,0l0,-50.79l22.87,0l0,4.48l-18,0l0,18.12l16.88,0l0,4.42l-16.88,0l0.04,19.23Z" style="fill:#a2988a;fill-rule:nonzero;"/><path d="M384.94,65.63c0,-13.41 -10.65,-20.45 -25.36,-20.45c-1.88,0 -5,0.13 -5.8,0.26l0,43.37c1.345,0.139 2.698,0.185 4.05,0.14c4.332,-0.025 8.626,-0.821 12.68,-2.35c7.15,-2.99 14.43,-8.73 14.43,-20.97Zm-38.71,29.05l0,-55.49c1.558,-0.291 3.136,-0.465 4.72,-0.52c2.7,-0.13 5.94,-0.26 7.55,-0.26c5.94,0 12.28,0.52 18.35,2.86c9.909,3.757 16.418,13.405 16.19,24c0,15.37 -9.72,22.4 -15.65,25.66c-3.047,1.702 -6.314,2.974 -9.71,3.78c0.94,1.17 2.42,2.86 29.13,35.16c3.24,3.91 14.39,15.51 15.2,16.29l-4.31,0.26l-5.7,0c-8.09,-9.9 -24.5,-28.14 -42.85,-50.8l-5.4,0l-0.47,3.23l0.47,41.45l-7.55,0l0.03,-45.62Z" style="fill:#34715b;fill-rule:nonzero;"/><path d="M56.77,45.44l0,40.51l34.53,0l0,6.64l-0.54,0l-9.57,0l-24.42,0l0,82.55l-7.55,0l0,-80.46l0,-13.03l0,-41.94l0,-1.04l44.38,0l0,6.77l-0.68,0l-12.28,0l-23.87,0Z" style="fill:#34715b;fill-rule:nonzero;"/><path d="M172.62,217.37c0,24.51 -18.92,45.23 -45.91,45.23c-24.344,0.132 -44.491,-19.776 -44.65,-44.12c0,-25.62 19.84,-45.22 46.6,-45.22c25.27,0 43.96,19.38 43.96,44.11Zm-7.93,0.56c0,-21.61 -16.16,-38.2 -37.64,-38.2c-20.05,0 -37.05,17.76 -37.05,38.2c0,20.44 16.26,38.07 37.39,38.07c21.48,0 37.3,-17 37.3,-38.07Z" style="fill:#34715b;fill-rule:nonzero;"/><path d="M255.47,98.45l0,-59.52l3.65,-0.26l3.88,0l0,59.13c0,11.34 1.62,19.41 5.66,25.53c5,7.43 14.84,11.59 24,11.59c10.25,0 18.89,-2.73 24.82,-10.28c4.86,-6.26 7.15,-15.5 7.15,-28.4l0,-57.31l3.51,-0.26l3.86,0l0,58.33c0,14.46 -3,25 -9.84,32.82c-6.84,7.82 -17.4,11.86 -29.81,11.86c-12.14,0 -22.67,-4.3 -29.27,-13.42c-5.32,-7.14 -7.61,-15.09 -7.61,-29.81Z" style="fill:#34715b;fill-rule:nonzero;"/><path d="M452.68,285.55c-0.69,0 -1.73,0 -2.34,0.08l0,20.37l1.48,0c2.049,-0.01 4.08,-0.383 6,-1.1c3.37,-1.42 6.74,-4.08 6.74,-9.8c0,-6.23 -4.86,-9.55 -11.88,-9.55Zm-7,17.33l0,-21.09l0.37,-0.09c0.792,-0.152 1.594,-0.243 2.4,-0.27c1.32,-0.06 2.92,-0.13 3.71,-0.13c3.105,-0.09 6.201,0.395 9.13,1.43c5.015,1.901 8.314,6.778 8.21,12.14c0,7.74 -4.91,11.3 -7.88,12.93c-1.307,0.731 -2.697,1.301 -4.14,1.7c0.9,1.08 3.56,4.27 13.76,16.6c1.59,1.92 3.8,4.56 4.17,4.92l0.77,0.74l-3.18,0.24l-3,0c-4.07,-5 -8.85,-10.86 -17.71,-21.8l-1.9,0l0,21.64l-2.25,0.16l-2.42,0l0,-29.12l-0.04,0Zm-165.78,-22.22c1.868,-0.002 3.735,0.108 5.59,0.33c1.59,0.19 3.59,0.58 4.72,0.83l0.4,0.09l0,0.4c0,0.57 0,1.34 -0.07,2c-0.07,0.66 0,1.33 -0.07,1.52l-0.09,0.51l-0.51,-0.13c-1,-0.25 -2.09,-0.5 -3.13,-0.69c-2.166,-0.377 -4.361,-0.565 -6.56,-0.56c-14.09,0 -23,8.13 -23,21.65c0,12.94 9.84,21.71 22.49,21.71c2.282,0.013 4.559,-0.198 6.8,-0.63c0.962,-0.236 1.911,-0.526 2.84,-0.87l0.59,-0.2l0.06,0.6c0.13,1.27 0.13,2.42 0.2,3.45l0,0.36l-0.36,0.11c-1.516,0.437 -3.059,0.771 -4.62,1c-2.032,0.277 -4.079,0.427 -6.13,0.45c-14,0 -27,-9.26 -27,-26.15c0.04,-16.59 12.82,-25.78 27.85,-25.78Zm18.6,22.22l0,-21.32l11.14,-0.13l11.49,0l0,4.25l-18,0l0,18.32l16.68,0l0.17,2.11l0,2.08l-16.82,0l0,19.4l13.6,0.06l5,0l0.17,4.31l-23.43,0l0,-29.08Zm69.5,29.7l-1.06,0c-14.17,-17.15 -22.07,-26.87 -26.74,-32.59c-2.47,-3 -4.1,-4.91 -6.44,-8.09l-0.06,17.33l0,37.16l-2.18,0.16l-2.22,0l0,-65.89l1.05,0c14.63,17.85 22.73,27.84 27.34,33.43c2.19,2.72 3.82,4.72 5.78,7.35l0.12,-18.57l0,-32.87l2.19,-0.16l2.22,0l0,62.77l0,-0.03Zm21.07,-47l-16.07,0l0,-4.18l36.84,0l0,4.18l-16.11,0l0,46.18l-2.25,0.16l-2.41,0l0,-46.31l0,-0.03Zm25.8,17.27l0,-21.29l11.15,-0.13l11.48,0l0,4.25l-18,0l0,18.32l16.69,0l0.16,2.11l0,2.08l-16.82,0l0,19.4l13.6,0.06l5,0l0.17,4.31l-23.43,0l0,-29.08l0,-0.03Z" style="fill:#a2988a;fill-rule:nonzero;"/></g></g><defs><linearGradient id="_Linear3" x1="0" y1="0" x2="1" y2="0" gradientUnits="userSpaceOnUse" gradientTransform="matrix(3.96418e-15,64.74,-64.74,3.96418e-15,168.24,30.44)"><stop offset="0" style="stop-color:#fff;stop-opacity:1"/><stop offset="1" style="stop-color:#34715b;stop-opacity:1"/></linearGradient><linearGradient id="_Linear4" x1="0" y1="0" x2="1" y2="0" gradientUnits="userSpaceOnUse" gradientTransform="matrix(1.12496e-14,-183.72,183.72,1.12496e-14,167.69,180.65)"><stop offset="0" style="stop-color:#fff;stop-opacity:1"/><stop offset="1" style="stop-color:#a2988a;stop-opacity:1"/></linearGradient><linearGradient id="_Linear5" x1="0" y1="0" x2="1" y2="0" gradientUnits="userSpaceOnUse" gradientTransform="matrix(87.56,-0.79,0.79,87.56,77.37,97.28)"><stop offset="0" style="stop-color:#fff;stop-opacity:1"/><stop offset="1" style="stop-color:#a2988a;stop-opacity:1"/></linearGradient><linearGradient id="_Linear6" x1="0" y1="0" x2="1" y2="0" gradientUnits="userSpaceOnUse" gradientTransform="matrix(-192.28,-4.05,4.05,-192.28,236.16,97.22)"><stop offset="0" style="stop-color:#fff;stop-opacity:1"/><stop offset="1" style="stop-color:#a2988a;stop-opacity:1"/></linearGradient></defs></svg>